<?xml version="1.0" encoding="utf-8"?>
<!-- Generator: Adobe Illustrator 19.0.0, SVG Export Plug-In . SVG Version: 6.00 Build 0)  -->
<svg version="1.1" id="图层_1" xmlns="http://www.w3.org/2000/svg" xmlns:xlink="http://www.w3.org/1999/xlink" x="0px" y="0px"
	 viewBox="0 0 350 125" style="enable-background:new 0 0 350 125;" xml:space="preserve">
<style type="text/css">
	.st0{fill:#009245;}
	.st1{fill:#39B54A;}
	.st2{fill:#F7931E;}
	.st3{fill:#93278F;}
	.st4{fill:none;}
</style>
<g id="XMLID_2_">
	<g id="XMLID_1_">
		<g id="XMLID_84_">
			<path id="XMLID_85_" class="st0" d="M31.3,86.8V13.6h23c9.5,0,17.2,2.9,23,8.8c5.8,5.9,8.7,13.5,8.7,22.8v10
				c0,9.3-2.9,16.9-8.7,22.8c-5.8,5.8-13.5,8.8-23,8.8H31.3z M41.2,21.4V79h13.1c6.8,0,12.1-2.2,16-6.7c3.9-4.5,5.9-10.2,5.9-17.1
				V45.1c0-6.9-2-12.6-5.9-17c-3.9-4.5-9.2-6.7-16-6.7H41.2z"/>
			<path id="XMLID_88_" class="st0" d="M118.1,52.4l11.6-20h11.6l-17.6,26.9l18.1,27.5h-11.4l-12.1-20.5l-12.1,20.5H94.8l18.1-27.5
				L95.3,32.4h11.4L118.1,52.4z"/>
			<path id="XMLID_90_" d="M191.8,68.3c0-3.3-1.2-6.1-3.6-8.3c-2.4-2.2-6.6-4.2-12.6-5.7c-7.4-1.8-13.2-4.6-17.4-8.1
				C154,42.5,152,38,152,32.6c0-5.7,2.2-10.5,6.7-14.3c4.5-3.8,10.3-5.7,17.5-5.7c7.7,0,13.8,2.2,18.4,6.6c4.6,4.4,6.8,9.5,6.7,15.3
				l-0.2,0.3h-9.4c0-4.2-1.4-7.6-4.3-10.3c-2.9-2.7-6.6-4.1-11.1-4.1c-4.6,0-8.2,1.1-10.6,3.4c-2.5,2.2-3.7,5.2-3.7,8.7
				c0,3.2,1.3,5.8,4,8c2.7,2.1,7.1,4,13.1,5.6c7.4,1.9,13,4.7,16.8,8.4c3.9,3.7,5.8,8.3,5.8,13.8c0,5.9-2.3,10.6-7,14.2
				c-4.6,3.6-10.7,5.4-18.2,5.4c-7.1,0-13.3-2-18.7-5.9c-5.4-4-8-9.2-7.9-15.9l0.1-0.3h9.4c0,4.6,1.7,8.1,5.2,10.6
				c3.5,2.5,7.4,3.7,11.8,3.7c4.7,0,8.4-1.1,11.1-3.2C190.4,74.8,191.8,71.9,191.8,68.3z"/>
			<path id="XMLID_92_" d="M225,18.5h-9.9V8.4h9.9V18.5z M225,86.8h-9.9V32.4h9.9V86.8z"/>
			<path id="XMLID_95_" d="M254,19.3v13.1h10.3v7.3H254v33c0,2.5,0.5,4.3,1.6,5.4c1.1,1,2.5,1.6,4.2,1.6c0.6,0,1.2-0.1,1.9-0.2
				c0.7-0.2,1.3-0.3,1.8-0.5l1.4,6.8c-0.7,0.6-1.8,1.1-3.3,1.5c-1.4,0.4-2.9,0.6-4.3,0.6c-4,0-7.2-1.2-9.6-3.6
				c-2.4-2.4-3.6-6.2-3.6-11.4v-33h-8.6v-7.3h8.6V19.3H254z"/>
			<path id="XMLID_97_" d="M297.4,87.8c-7.8,0-13.9-2.5-18.3-7.5c-4.4-5-6.6-11.6-6.6-19.7v-2.2c0-7.8,2.3-14.3,6.8-19.4
				c4.5-5.1,10-7.7,16.5-7.7c7.3,0,12.7,2.3,16.4,6.8c3.6,4.5,5.5,10.5,5.5,18v5.2h-34.8l-0.2,0.3c0,5.5,1.2,9.9,3.6,13.3
				c2.4,3.4,6.1,5.1,11.1,5.1c3.3,0,6.3-0.5,8.8-1.4c2.5-1,4.7-2.3,6.5-3.9l3.9,6.4c-1.9,1.9-4.5,3.5-7.7,4.7
				C305.7,87.2,301.9,87.8,297.4,87.8z M295.8,39.2c-3.5,0-6.3,1.3-8.6,4c-2.3,2.7-3.6,6.1-4.1,10.2l0.1,0.3h24.5v-0.8
				c0-4-1-7.2-2.9-9.8C302.9,40.5,299.9,39.2,295.8,39.2z"/>
		</g>
		<g id="XMLID_56_">
			<path id="XMLID_57_" class="st1" d="M236.6,104.5h3v7.7c1,1.8,2.9,2.7,5.7,2.7h10.4v0.4h-10.4c-2.8,0-4.8-0.9-5.9-2.7
				c-0.2,0.2-1,1.2-2.6,3l-0.3-0.2l2.8-3.1v-7.3h-2.6V104.5z M237.8,97.9l0.3-0.2l2.6,3.5l-0.3,0.2L237.8,97.9z M243.4,99.7h3.4
				c0.5-1,0.9-1.9,1.1-2.5l0.4,0.2c-0.1,0.2-0.2,0.4-0.4,0.8c-0.3,0.7-0.5,1.2-0.7,1.6h6.2v4.7h-9.7v3.1h10.3v4.7h-10.7V99.7z
				 M253.1,100.2h-9.3v3.8h9.3V100.2z M253.7,107.8h-9.8v4h9.8V107.8z"/>
			<path id="XMLID_63_" class="st1" d="M257.5,113.1l8.5-4.9l0.2,0.4l-8.6,4.8L257.5,113.1z M267.1,97.1h0.4v4.4h9v0.4h-9v1
				c0.7,2,1.6,3.8,2.8,5.3c1.7-1.4,3.4-2.9,4.9-4.3l0.2,0.3c-1.5,1.5-3.2,2.9-4.9,4.3c1.7,2,3.8,3.6,6.2,5l-0.2,0.3
				c-4.4-2.4-7.5-5.6-9.1-9.8v9.8c0,0.7-0.2,1.2-0.6,1.6c-0.3,0.3-0.9,0.5-1.9,0.4h-2v-0.4h2c0.8,0,1.4-0.1,1.6-0.3
				c0.3-0.2,0.4-0.6,0.4-1.2V102h-9.2v-0.4h9.2V97.1z M259.7,104.2l0.3-0.3l3.4,3.5l-0.3,0.2L259.7,104.2z M270.4,98.3l0.2-0.3
				c0.5,0.3,1.4,1,2.7,2c0.4,0.3,0.7,0.5,0.8,0.6l-0.2,0.3c-0.2-0.2-0.7-0.5-1.5-1.1C271.5,99.1,270.8,98.6,270.4,98.3z"/>
			<path id="XMLID_68_" class="st1" d="M278.8,101.7h3.1v-4.4h0.4v4.4h2.9v0.4h-2.9V116h-0.4v-12.6c-0.8,2.5-1.8,4.9-3.1,7.1
				l-0.3-0.2c1.6-2.6,2.7-5.3,3.4-8.3h-3V101.7z M282.5,105.3l0.3-0.2l2.5,2.5l-0.2,0.3L282.5,105.3z M293.1,104.1h3.4v0.4
				c-0.8,2.6-2.1,5-3.9,7c1.3,1.5,3,2.8,5.1,3.9l-0.2,0.3c-2.2-1.1-3.9-2.4-5.2-3.9c-1.6,1.6-3.7,3-6.2,4.3l-0.2-0.3
				c2.5-1.3,4.5-2.7,6-4.3c-2-2.4-3.4-5.3-4.3-8.7v0.7c0.1,5.2-1.2,9.2-3.9,12.1l-0.3-0.2c2.6-2.8,3.9-6.8,3.9-11.9
				c0-2.3,0-3.7,0-4.2h-2.2v-0.4h9.9v0.4L293.1,104.1z M287.9,100.8c0.7,4.4,2.1,7.8,4.4,10.4c1.8-1.9,3.1-4.1,3.8-6.6h-3.4v-0.4
				l2.1-4.8h-6.9V100.8z"/>
			<path id="XMLID_73_" class="st1" d="M299.6,102.6c1.5-1.5,2.9-3.4,4.1-5.5l0.4,0.2l-0.1,0.1c-0.3,0.5-0.7,1.2-1.2,2h6.8v0.4h-7.1
				c-0.8,1.1-1.7,2.2-2.7,3.2L299.6,102.6z M301.3,105.3h0.4V116h-0.4V105.3z M301.9,102.6l0.3-0.3l2.8,2.6l-0.2,0.2L301.9,102.6z
				 M304.2,100.6l0.3-0.3l1.9,1.9l-0.2,0.3L304.2,100.6z M305.2,106.5h7.8v6.5h-7.8V106.5z M312.6,106.8h-7v2.7h7V106.8z
				 M305.6,112.6h7v-2.6h-7V112.6z M306.8,103.7H317V114c0.1,1.4-0.8,2-2.7,2l-2.8-0.1v-0.4l2.8,0.1c1.7,0.1,2.5-0.5,2.3-1.6V104
				h-9.8V103.7z M309,102.1c1.3-1.4,2.3-3.1,3.2-4.9l0.3,0.2c-0.3,0.7-0.7,1.3-1.1,2h7.2v0.4h-7.5c-0.6,0.9-1.2,1.8-1.9,2.5
				L309,102.1z M312.9,100.7l0.3-0.3l2,1.9l-0.3,0.2L312.9,100.7z"/>
		</g>
		<g id="XMLID_5_">
			<path id="XMLID_6_" d="M41.2,112.8h-1.7l-6.2-9.8l-0.1,0v9.8h-1.7V100h1.7l6.2,9.8l0.1,0V100h1.7V112.8z"/>
			<path id="XMLID_8_" d="M43.6,107.9c0-1.4,0.4-2.6,1.1-3.5s1.8-1.4,3.1-1.4c1.3,0,2.4,0.5,3.1,1.4s1.1,2.1,1.1,3.5v0.2
				c0,1.4-0.4,2.6-1.1,3.5s-1.8,1.4-3.1,1.4s-2.4-0.5-3.1-1.4c-0.8-0.9-1.1-2.1-1.1-3.5V107.9z M45.3,108.1c0,1,0.2,1.8,0.6,2.5
				s1.1,1,1.9,1c0.8,0,1.5-0.3,1.9-1s0.6-1.5,0.6-2.5v-0.2c0-1-0.2-1.8-0.6-2.5s-1.1-1-1.9-1c-0.8,0-1.5,0.3-1.9,1s-0.6,1.5-0.6,2.5
				V108.1z"/>
			<path id="XMLID_11_" class="st2" d="M64.1,100h1.7v9.1c0,1.2-0.4,2.1-1.1,2.8s-1.7,1.1-2.8,1.1c-1.2,0-2.1-0.3-2.8-0.9
				c-0.7-0.6-1-1.5-1-2.7l0-0.1h1.7c0,0.8,0.2,1.4,0.6,1.8s0.9,0.6,1.6,0.6c0.6,0,1.2-0.2,1.6-0.7s0.6-1.1,0.6-1.8V100z"/>
			<path id="XMLID_13_" class="st2" d="M78.6,107.5c0,0.7-0.1,1.3-0.3,1.9s-0.5,1.1-0.8,1.6l1.9,1.9l-1.2,1.1l-2-1.9
				c-0.4,0.3-0.9,0.5-1.3,0.6s-1,0.2-1.5,0.2c-1.5,0-2.7-0.5-3.6-1.5s-1.4-2.3-1.4-3.9v-2.3c0-1.6,0.5-2.9,1.4-3.9s2.1-1.6,3.6-1.6
				c1.5,0,2.8,0.5,3.8,1.6s1.5,2.3,1.5,3.9V107.5z M76.8,105.2c0-1.2-0.3-2.1-0.9-2.9s-1.5-1.1-2.5-1.1c-1,0-1.8,0.4-2.4,1.1
				s-0.9,1.7-0.9,2.9v2.3c0,1.2,0.3,2.2,0.9,2.9s1.4,1.1,2.4,1.1c1.1,0,1.9-0.4,2.6-1.1c0.6-0.7,0.9-1.7,0.9-2.9V105.2z"/>
			<path id="XMLID_16_" class="st2" d="M87.1,111.4c-0.3,0.5-0.7,0.9-1.2,1.2s-1,0.4-1.6,0.4c-1,0-1.8-0.3-2.4-1s-0.9-1.7-0.9-3.1
				v-5.6h1.7v5.6c0,1,0.1,1.7,0.4,2.1s0.8,0.6,1.4,0.6c0.6,0,1.1-0.1,1.5-0.4c0.4-0.2,0.7-0.6,0.9-1.1v-6.9h1.7v9.5h-1.6L87.1,111.4
				z"/>
			<path id="XMLID_18_" class="st2" d="M95.3,113c-1.4,0-2.4-0.4-3.2-1.3s-1.1-2-1.1-3.4v-0.4c0-1.4,0.4-2.5,1.2-3.4
				c0.8-0.9,1.8-1.3,2.9-1.3c1.3,0,2.2,0.4,2.9,1.2s1,1.8,1,3.2v0.9h-6.1l0,0c0,1,0.2,1.7,0.6,2.3s1.1,0.9,1.9,0.9
				c0.6,0,1.1-0.1,1.5-0.3c0.4-0.2,0.8-0.4,1.1-0.7l0.7,1.1c-0.3,0.3-0.8,0.6-1.3,0.8C96.7,112.9,96,113,95.3,113z M95,104.5
				c-0.6,0-1.1,0.2-1.5,0.7c-0.4,0.5-0.6,1.1-0.7,1.8l0,0h4.3v-0.1c0-0.7-0.2-1.3-0.5-1.7S95.7,104.5,95,104.5z"/>
			<path id="XMLID_21_" class="st2" d="M105.2,104.8l-0.9-0.1c-0.5,0-0.8,0.1-1.2,0.3s-0.6,0.5-0.7,0.9v6.8h-1.7v-9.5h1.5l0.2,1.4
				c0.3-0.5,0.6-0.9,1-1.2s0.9-0.4,1.4-0.4c0.1,0,0.3,0,0.4,0s0.2,0,0.3,0.1L105.2,104.8z"/>
			<path id="XMLID_23_" class="st2" d="M110.1,109.3l0.3,1.2h0.1l2.3-7.2h1.9l-4,11c-0.2,0.6-0.6,1.2-1,1.7s-1.1,0.7-1.8,0.7
				c-0.1,0-0.3,0-0.5,0c-0.2,0-0.4-0.1-0.5-0.1l0.2-1.4c0,0,0.1,0,0.3,0s0.4,0,0.5,0c0.4,0,0.7-0.2,0.9-0.5s0.4-0.7,0.6-1.1l0.4-1
				l-3.5-9.3h1.9L110.1,109.3z"/>
			<path id="XMLID_25_" d="M116.8,112.4l-1.3,2.7h-1l0.6-2.8v-1.4h1.7V112.4z"/>
			<path id="XMLID_27_" d="M128.8,112.8H127l-6.2-9.8l-0.1,0v9.8h-1.7V100h1.7l6.2,9.8l0.1,0V100h1.7V112.8z"/>
			<path id="XMLID_29_" d="M131.1,107.9c0-1.4,0.4-2.6,1.1-3.5s1.8-1.4,3.1-1.4c1.3,0,2.4,0.5,3.1,1.4s1.1,2.1,1.1,3.5v0.2
				c0,1.4-0.4,2.6-1.1,3.5s-1.8,1.4-3.1,1.4s-2.4-0.5-3.1-1.4c-0.8-0.9-1.1-2.1-1.1-3.5V107.9z M132.9,108.1c0,1,0.2,1.8,0.6,2.5
				s1.1,1,1.9,1c0.8,0,1.5-0.3,1.9-1s0.6-1.5,0.6-2.5v-0.2c0-1-0.2-1.8-0.6-2.5s-1.1-1-1.9-1c-0.8,0-1.5,0.3-1.9,1s-0.6,1.5-0.6,2.5
				V108.1z"/>
			<path id="XMLID_32_" class="st3" d="M146.5,112.8V100h4.2c1.3,0,2.4,0.3,3.1,0.9c0.8,0.6,1.1,1.4,1.1,2.6c0,0.6-0.2,1-0.5,1.5
				c-0.3,0.4-0.8,0.8-1.4,1c0.8,0.1,1.5,0.5,2,1.1s0.7,1.3,0.7,2.2c0,1.2-0.4,2.1-1.1,2.7c-0.8,0.6-1.8,0.9-3.1,0.9H146.5z
				 M148.2,105.4h2.8c0.6,0,1.2-0.2,1.6-0.5c0.4-0.4,0.6-0.8,0.6-1.5c0-0.7-0.2-1.2-0.7-1.6c-0.4-0.3-1.1-0.5-1.9-0.5h-2.4V105.4z
				 M148.2,106.8v4.6h3.3c0.8,0,1.4-0.2,1.8-0.6s0.7-0.9,0.7-1.7c0-0.7-0.2-1.3-0.7-1.7s-1-0.7-1.8-0.7h-0.1H148.2z"/>
			<path id="XMLID_36_" class="st3" d="M157.3,107.9c0-1.4,0.4-2.6,1.1-3.5s1.8-1.4,3.1-1.4c1.3,0,2.4,0.5,3.1,1.4s1.1,2.1,1.1,3.5
				v0.2c0,1.4-0.4,2.6-1.1,3.5s-1.8,1.4-3.1,1.4s-2.4-0.5-3.1-1.4c-0.8-0.9-1.1-2.1-1.1-3.5V107.9z M159,108.1c0,1,0.2,1.8,0.6,2.5
				s1.1,1,1.9,1c0.8,0,1.5-0.3,1.9-1s0.6-1.5,0.6-2.5v-0.2c0-1-0.2-1.8-0.6-2.5s-1.1-1-1.9-1c-0.8,0-1.5,0.3-1.9,1s-0.6,1.5-0.6,2.5
				V108.1z"/>
			<path id="XMLID_39_" class="st3" d="M167.5,107.9c0-1.4,0.4-2.6,1.1-3.5s1.8-1.4,3.1-1.4c1.3,0,2.4,0.5,3.1,1.4s1.1,2.1,1.1,3.5
				v0.2c0,1.4-0.4,2.6-1.1,3.5s-1.8,1.4-3.1,1.4s-2.4-0.5-3.1-1.4c-0.8-0.9-1.1-2.1-1.1-3.5V107.9z M169.2,108.1
				c0,1,0.2,1.8,0.6,2.5s1.1,1,1.9,1c0.8,0,1.5-0.3,1.9-1s0.6-1.5,0.6-2.5v-0.2c0-1-0.2-1.8-0.6-2.5s-1.1-1-1.9-1
				c-0.8,0-1.5,0.3-1.9,1s-0.6,1.5-0.6,2.5V108.1z"/>
			<path id="XMLID_42_" class="st3" d="M180.6,101v2.3h1.8v1.3h-1.8v5.8c0,0.4,0.1,0.8,0.3,0.9s0.4,0.3,0.7,0.3c0.1,0,0.2,0,0.3,0
				c0.1,0,0.2-0.1,0.3-0.1l0.2,1.2c-0.1,0.1-0.3,0.2-0.6,0.3c-0.3,0.1-0.5,0.1-0.7,0.1c-0.7,0-1.3-0.2-1.7-0.6
				c-0.4-0.4-0.6-1.1-0.6-2v-5.8h-1.5v-1.3h1.5V101H180.6z"/>
			<path id="XMLID_44_" class="st3" d="M189.7,110.2c0-0.4-0.1-0.7-0.4-0.9s-0.8-0.5-1.6-0.6c-1.1-0.2-2-0.6-2.6-1s-0.9-1-0.9-1.7
				c0-0.8,0.3-1.4,1-2s1.5-0.8,2.6-0.8c1.1,0,2,0.3,2.6,0.9s1,1.3,1,2l0,0.1h-1.7c0-0.4-0.2-0.8-0.5-1.1s-0.8-0.5-1.4-0.5
				c-0.6,0-1.1,0.1-1.4,0.4s-0.5,0.6-0.5,1c0,0.4,0.1,0.7,0.4,0.9s0.8,0.4,1.6,0.6c1.2,0.2,2.1,0.6,2.7,1s0.9,1,0.9,1.8
				c0,0.8-0.3,1.5-1,2.1s-1.6,0.8-2.7,0.8c-1.2,0-2.2-0.3-2.9-0.9s-1-1.3-1-2.2l0-0.1h1.7c0,0.6,0.3,1.1,0.7,1.3
				c0.4,0.3,0.9,0.4,1.5,0.4c0.6,0,1.1-0.1,1.4-0.4C189.6,111,189.7,110.6,189.7,110.2z"/>
			<path id="XMLID_46_" class="st3" d="M196,101v2.3h1.8v1.3H196v5.8c0,0.4,0.1,0.8,0.3,0.9s0.4,0.3,0.7,0.3c0.1,0,0.2,0,0.3,0
				c0.1,0,0.2-0.1,0.3-0.1l0.2,1.2c-0.1,0.1-0.3,0.2-0.6,0.3c-0.3,0.1-0.5,0.1-0.7,0.1c-0.7,0-1.3-0.2-1.7-0.6
				c-0.4-0.4-0.6-1.1-0.6-2v-5.8h-1.5v-1.3h1.5V101H196z"/>
			<path id="XMLID_48_" class="st3" d="M204.2,104.8l-0.9-0.1c-0.5,0-0.8,0.1-1.2,0.3s-0.6,0.5-0.7,0.9v6.8h-1.7v-9.5h1.5l0.2,1.4
				c0.3-0.5,0.6-0.9,1-1.2s0.9-0.4,1.4-0.4c0.1,0,0.3,0,0.4,0s0.2,0,0.3,0.1L204.2,104.8z"/>
			<path id="XMLID_50_" class="st3" d="M211.8,112.8c-0.1-0.3-0.1-0.5-0.1-0.8c0-0.2-0.1-0.4-0.1-0.7c-0.3,0.5-0.7,0.8-1.3,1.1
				c-0.5,0.3-1.1,0.5-1.7,0.5c-1,0-1.7-0.3-2.3-0.8c-0.5-0.5-0.8-1.2-0.8-2.1c0-0.9,0.4-1.6,1.1-2.1s1.7-0.8,3-0.8h1.9v-0.9
				c0-0.6-0.2-1-0.5-1.3c-0.3-0.3-0.8-0.5-1.4-0.5c-0.6,0-1,0.1-1.4,0.4s-0.5,0.6-0.5,1l-1.6,0l0-0.1c0-0.7,0.3-1.3,1-1.9
				s1.6-0.9,2.7-0.9c1.1,0,1.9,0.3,2.6,0.8s1,1.3,1,2.4v4.6c0,0.3,0,0.7,0.1,1s0.1,0.6,0.2,0.9H211.8z M209,111.5
				c0.6,0,1.2-0.2,1.7-0.5s0.8-0.7,1-1.1v-1.5h-1.9c-0.7,0-1.3,0.2-1.7,0.5s-0.6,0.8-0.6,1.2c0,0.4,0.1,0.8,0.4,1
				S208.4,111.5,209,111.5z"/>
			<path id="XMLID_53_" class="st3" d="M224,108.4c0,1.4-0.3,2.5-1,3.3s-1.6,1.3-2.7,1.3c-0.6,0-1.1-0.1-1.5-0.3
				c-0.4-0.2-0.8-0.5-1.1-0.9v4.6h-1.7v-13.2h1.3l0.3,1.2c0.3-0.5,0.7-0.8,1.2-1s1-0.4,1.6-0.4c1.2,0,2.1,0.5,2.7,1.4s1,2.2,1,3.7
				V108.4z M222.3,108.2c0-1.1-0.2-2-0.6-2.7c-0.4-0.7-1.1-1-1.9-1c-0.5,0-0.9,0.1-1.3,0.3c-0.4,0.2-0.6,0.5-0.9,0.9v4.6
				c0.2,0.4,0.5,0.7,0.9,0.9c0.4,0.2,0.8,0.3,1.3,0.3c0.8,0,1.4-0.3,1.9-0.9c0.4-0.6,0.6-1.4,0.6-2.3V108.2z"/>
		</g>
	</g>
	<rect id="XMLID_4_" class="st4" width="350" height="125"/>
</g>
</svg>
