<?xml version="1.0" encoding="utf-8"?>
<!-- Generator: Adobe Illustrator 19.0.0, SVG Export Plug-In . SVG Version: 6.00 Build 0)  -->
<svg version="1.1" id="图层_1" xmlns="http://www.w3.org/2000/svg" xmlns:xlink="http://www.w3.org/1999/xlink" x="0px" y="0px"
	 viewBox="0 0 586.1 223.8" style="enable-background:new 0 0 586.1 223.8;" xml:space="preserve">
<style type="text/css">
	.st0{fill:#FF1D25;}
	.st1{fill:#1EA0FD;}
	.st2{fill:#FFEF00;}
</style>
<g id="XMLID_24_">
	<g id="XMLID_1_">
		<rect id="XMLID_27_" x="0.4" y="21.2" class="st0" width="575.6" height="23.7"/>
		<rect id="XMLID_26_" x="23.8" y="0" class="st1" width="19.2" height="225.8"/>
		<rect id="XMLID_25_" x="0" y="187.9" class="st2" width="254.6" height="20.2"/>
	</g>
	<g id="XMLID_2_">
		<path id="XMLID_3_" d="M79,153.6v-47.2h-8.9v-7.9h20.4v40c4.5-1.4,9.1-3.7,13.6-6.8v9.3C96.4,146.4,88.1,150.5,79,153.6z M83,91.8
			c-1.2-6-3.3-12.2-6.4-18.6h10c3.3,5.7,5.7,11.9,7.1,18.6H83z M97.6,106.8V99h22.2V72.5h12.2V99h21.4v7.9h-21.4v47.9h-12.2v-47.9
			H97.6z"/>
		<path id="XMLID_7_" d="M160.9,90.4v-7.5h7.5V72.5h10.4v10.4h6.8v7.5h-6.8v64.3h-10.4V90.4H160.9z M182.7,126.8
			c2.4-7.1,4.2-16.3,5.4-27.5h7.5c-0.7,10.2-2.3,19.4-4.6,27.5H182.7z M239.1,126.8c-0.5-6.7-2.3-15.4-5.4-26.1v40
			c0.2,8.6-4.2,12.7-13.2,12.5h-8.2v-7.1h5.7c3.6,0,5.4-1.8,5.4-5.4V90.4h-10.4c0.9,31.7-8.1,53.4-27.2,65v-8.9
			c11.4-11,16.9-29.7,16.4-56.1h-13.6v-7.5h13.6V72.5h10.7V80v2.9h20.7v16.4h5.7c3.3,11.2,5.4,20.4,6.1,27.5H239.1z"/>
		<path id="XMLID_11_" d="M291,153.6c-23.8-1.4-36.5-14.5-37.9-39.3c1.2-25.7,13.9-39.2,38.2-40.4c23.3,1.4,35.9,14.9,37.5,40.4
			C327.7,139.3,315,152.4,291,153.6z M291,146.1c16.2-0.7,24.5-11.3,25-31.8c-0.7-20.5-8.9-31.2-24.7-32.2
			c-16,1.4-24.4,12.2-25.4,32.2C266.7,134.3,275,144.9,291,146.1z"/>
		<path id="XMLID_14_" d="M338.9,152.2V96.1h28.2c15.2-0.2,22.7,6.8,22.5,21.1v35h-12.2v-33.6c0-9.5-4.5-14.3-13.6-14.3h-12.5v47.9
			H338.9z"/>
		<path id="XMLID_16_" d="M401.4,151.8V70.4h12.5v81.5H401.4z"/>
		<path id="XMLID_18_" d="M425.3,86.4V75h12.5v11.4H425.3z M425.3,152.2V97.5h12.5v54.7H425.3z"/>
		<path id="XMLID_21_" d="M449.3,152.2V96.1h28.2c15.2-0.2,22.7,6.8,22.5,21.1v35h-12.2v-33.6c0-9.5-4.5-14.3-13.6-14.3h-12.5v47.9
			H449.3z"/>
		<path id="XMLID_23_" d="M565.4,128.6h-43.6c1.2,11.4,7.9,17.3,20,17.5c8.8,0,16.4-3.8,22.9-11.4v8.9c-5.5,6.7-14.1,10-25.7,10
			c-19.3-0.7-29.3-10-30-27.9c0.5-19.1,9.9-28.9,28.2-29.7C556.3,95.9,565.7,106.7,565.4,128.6z M522.2,120.4h31.1
			c-0.5-10.2-5.7-15.6-15.7-16.1C528.5,104.6,523.4,109.9,522.2,120.4z"/>
	</g>
</g>
</svg>
