<?xml version="1.0" encoding="utf-8"?>
<!-- Generator: Adobe Illustrator 19.0.0, SVG Export Plug-In . SVG Version: 6.00 Build 0)  -->
<svg version="1.1" id="图层_1" xmlns="http://www.w3.org/2000/svg" xmlns:xlink="http://www.w3.org/1999/xlink" x="0px" y="0px"
	 viewBox="0 0 306.2 83.7" style="enable-background:new 0 0 306.2 83.7;" xml:space="preserve">
<style type="text/css">
	.st0{fill:#FBB03B;}
	.st1{fill:#8CC63F;}
</style>
<g id="XMLID_1_">
	<g id="XMLID_2_">
		<path id="XMLID_3_" d="M246.7,75.5V59.2h10.8v-4.9h5.1v4.9h10.8v10.9c0.1,3.8-1.5,5.6-4.8,5.4h-6v8.2h-5.1v-8.2H246.7z
			 M251.3,72.2h6.2v-9.9h-6.2V72.2z M268.7,62.3h-6.2v9.9h4.3c1.3,0.1,1.9-0.6,1.9-2V62.3z"/>
		<path id="XMLID_19_" d="M278.6,82.9V55.3h27.6v22.9c0.1,3.2-1.5,4.8-4.7,4.7H278.6z M283.3,80.1h16.2c1.3,0,2-0.7,2-2.2V58.3
			h-18.2V80.1z M284.6,63.4v-2.9h15.7v2.9h-5.8v3.4h5.2v2.9h-5.2v5.1h6.1v2.9h-16.2v-2.9h5.6v-5.1h-4.7v-2.9h4.7v-3.4H284.6z
			 M296.3,74.1c-0.2-1.2-0.5-2.4-1-3.7h3.2c0.8,1.2,1.2,2.4,1.4,3.7H296.3z"/>
	</g>
	<g id="XMLID_4_">
		<g id="XMLID_11_">
			<path id="XMLID_12_" class="st0" d="M119.2,83.7H101V26.4c0-2.7-1-5-3.1-6.9c-2.1-1.9-4.5-2.8-7.4-2.8H79.3
				c-2.9,0-5.5,0.9-7.5,2.8c-2.1,1.9-3.1,4.2-3.1,6.9v57.3H50.5V26.4c0-2.7-1-5-3.1-6.9c-2.1-1.9-4.5-2.8-7.4-2.8H28.8
				c-2.9,0-5.5,0.9-7.5,2.8c-2.1,1.9-3.1,4.2-3.1,6.9v57.3H0V26.4c0-7.3,2.8-13.6,8.4-18.7C14,2.6,20.8,0,28.8,0H40
				c7.6,0,14.1,2.4,19.6,7.1C65.2,2.4,71.7,0,79.3,0h11.2c7.9,0,14.7,2.6,20.3,7.7c5.6,5.1,8.4,11.4,8.4,18.7V83.7z"/>
			<path id="XMLID_14_" class="st1" d="M234.3,83.7h-73.6c-8,0-14.8-2.6-20.4-7.7c-5.6-5.1-8.4-11.4-8.4-18.7V26.4
				c0-7.3,2.8-13.6,8.4-18.7c5.6-5.1,12.4-7.7,20.4-7.7h73.6v16.7h-73.7c-3,0-5.4,0.9-7.5,2.8c-2,1.9-3,4.2-3,6.9v30.9
				c0,2.7,1,5,3.1,6.9c2.1,1.9,4.6,2.8,7.5,2.8h73.6V83.7z"/>
		</g>
		<g id="XMLID_5_">
			<path id="XMLID_6_" d="M187,50.5h-2.6V44c0-0.4-0.1-0.8-0.4-1.1s-0.6-0.4-1.1-0.4h-8c-0.4,0-0.8,0.1-1.1,0.4
				c-0.3,0.3-0.4,0.6-0.4,1.1v2.4c0,0.4,0.1,0.8,0.4,1.1s0.7,0.4,1.1,0.4h8v2.6h-8c-1.1,0-2.1-0.4-2.9-1.2c-0.8-0.8-1.2-1.8-1.2-2.9
				V44c0-1.1,0.4-2.1,1.2-2.9c0.8-0.8,1.8-1.2,2.9-1.2h8c1.1,0,2.1,0.4,2.9,1.2c0.8,0.8,1.2,1.8,1.2,2.9V50.5z"/>
			<path id="XMLID_8_" d="M205,47.2c0,0.9-0.3,1.7-1,2.3s-1.4,1-2.3,1h-12.9v-2.6h12.9c0.2,0,0.4-0.1,0.5-0.2
				c0.1-0.1,0.2-0.3,0.2-0.5c0-0.2-0.1-0.4-0.2-0.5c-0.1-0.1-0.3-0.2-0.5-0.2h-9.6c-0.9,0-1.7-0.3-2.3-1c-0.6-0.6-1-1.4-1-2.3
				c0-0.9,0.3-1.7,1-2.3c0.6-0.6,1.4-1,2.3-1h12.1v2.6h-12.1c-0.2,0-0.4,0.1-0.5,0.2c-0.1,0.1-0.2,0.3-0.2,0.5
				c0,0.2,0.1,0.4,0.2,0.5c0.1,0.1,0.3,0.2,0.5,0.2h9.6c0.9,0,1.7,0.3,2.3,1C204.7,45.5,205,46.3,205,47.2z"/>
			<path id="XMLID_10_" d="M220.5,50.5h-9.6c-1.1,0-2.1-0.4-2.9-1.2c-0.8-0.8-1.2-1.8-1.2-2.9v-6.5l2.6,0v6.5c0,0.4,0.1,0.8,0.4,1.1
				c0.3,0.3,0.7,0.4,1.1,0.4h9.6V50.5z"/>
		</g>
	</g>
</g>
</svg>
