<?xml version="1.0" encoding="utf-8"?>
<!-- Generator: Adobe Illustrator 19.0.0, SVG Export Plug-In . SVG Version: 6.00 Build 0)  -->
<svg version="1.1" id="图层_1" xmlns="http://www.w3.org/2000/svg" xmlns:xlink="http://www.w3.org/1999/xlink" x="0px" y="0px"
	 viewBox="0 0 175.6 175.6" style="enable-background:new 0 0 175.6 175.6;" xml:space="preserve">
<style type="text/css">
	.st0{fill:#F7931E;}
	.st1{opacity:0.87;}
	.st2{fill:none;}
</style>
<g id="XMLID_8_">
	<g id="XMLID_1_">
		<g id="XMLID_5_">
			<path id="XMLID_6_" class="st0" d="M152.3,126.7h-19.7V59.2c0-3.2-1.1-5.9-3.3-8.1c-2.2-2.2-4.9-3.3-8-3.3h-12.2
				c-3.2,0-5.9,1.1-8.1,3.3c-2.2,2.2-3.3,4.9-3.3,8.1v67.5H78V59.2c0-3.2-1.1-5.9-3.3-8.1c-2.2-2.2-4.9-3.3-8-3.3H54.5
				c-3.2,0-5.9,1.1-8.1,3.3C44.1,53.3,43,56,43,59.2v67.5H23.3V59.2c0-8.7,3-16,9.1-22.1C38.5,31,45.8,28,54.5,28h12.2
				c8.2,0,15.3,2.8,21.2,8.3c6-5.6,13.1-8.3,21.3-8.3h12.2c8.6,0,15.9,3,21.9,9.1c6.1,6.1,9.1,13.4,9.1,22.1V126.7z"/>
		</g>
		<path id="XMLID_3_" class="st1" d="M153,74.8c-2.8,10.7-5.7,21.4-8.5,32.1c-19.1,13.5-38.1,27.1-57.2,40.6
			c-17-12.4-34-24.9-51-37.3c-4.6-11.3-9.1-22.7-13.7-34C55.1,98.8,124,94.3,153,74.8z"/>
	</g>
	<rect id="XMLID_4_" y="0" class="st2" width="175.6" height="175.6"/>
</g>
</svg>
